<svg width="58" height="54" viewBox="0 0 58 54" fill="none" xmlns="http://www.w3.org/2000/svg">
<path d="M53.3743 30.7714H32.8457V50.0036C32.8457 52.1191 30.9981 53.85 28.74 53.85C26.4819 53.85 24.6343 52.1191 24.6343 50.0036V30.7714H4.10571C1.84757 30.7714 0 29.0405 0 26.925C0 24.8095 1.84757 23.0786 4.10571 23.0786H24.6343V3.84643C24.6343 1.73089 26.4819 0 28.74 0C30.9981 0 32.8457 1.73089 32.8457 3.84643V23.0786H53.3743C55.6324 23.0786 57.48 24.8095 57.48 26.925C57.48 29.0405 55.6324 30.7714 53.3743 30.7714Z" fill="black"/>
</svg>
